<mxfile host="app.diagrams.net" modified="2022-05-19T08:32:43.365Z" agent="5.0 (X11)" etag="quBwpDXHbnLSoLIJSIFv" version="16.6.4" type="github">
  <diagram id="XIAOA3c6JpC8pxD92Jwt" name="Page-1">
    <mxGraphModel dx="1174" dy="1082" grid="1" gridSize="10" guides="1" tooltips="1" connect="1" arrows="1" fold="1" page="1" pageScale="1" pageWidth="850" pageHeight="1100" math="0" shadow="0">
      <root>
        <mxCell id="0" />
        <mxCell id="1" parent="0" />
        <mxCell id="QVcpUhaorycnizl-NNb7-1" value="" style="rounded=0;whiteSpace=wrap;html=1;" vertex="1" parent="1">
          <mxGeometry x="180" y="230" width="120" height="60" as="geometry" />
        </mxCell>
      </root>
    </mxGraphModel>
  </diagram>
</mxfile>
